<svg xmlns="http://www.w3.org/2000/svg" version="1.1" xmlns:xlink="http://www.w3.org/1999/xlink" width="186.16" height="150.03"><svg id="SvgjsSvg1001" data-name="Layer 1" xmlns="http://www.w3.org/2000/svg" viewBox="0 0 186.16 150.03">
  <defs>
    <style>
      .cls-1 {
        fill: #fff;
      }

      .cls-2 {
        fill: #082746;
      }
    </style>
  </defs>
  <path class="cls-2" d="M34.78,18.89c0-9.14-7.39-16.56-16.51-16.56S1.76,9.75,1.76,18.89h22.21l2.28-6.28,2.42,6.28h6.12Z"></path>
  <path class="cls-2" d="M51.14,148.57s16.34-1.8,16.56-16.77c.22.03,68.06.1,68.06.1l3.79,6.18,3.69-6.2,41.31-.09s-.48,16.09-16.56,16.56-116.85.21-116.85.21"></path>
  <path class="cls-2" d="M68.01,133.47c7.63-.01,15.26-.03,22.88-.04l36.61-.06c2.79,0,5.58,0,8.36-.01l-1.3-.74,3.79,6.18c.59.96,2.01.98,2.59,0,1.23-2.07,2.46-4.13,3.69-6.2l-1.3.74c12.04-.02,24.08-.05,36.12-.07,1.73,0,3.46,0,5.19-.01l-1.5-1.5c-.09,8.28-6.79,14.98-15.07,15.06-1.36.01-2.73,0-4.1,0-8.43.02-16.87.03-25.3.05-12.16.02-24.32.04-36.49.07l-33.71.06c-5.65.01-11.34-.18-16.99.03-.08,0-.17,0-.25,0-1.93,0-1.93,3,0,3,4.8,0,9.6-.02,14.4-.03,11.03-.02,22.06-.04,33.09-.06,12.42-.02,24.85-.05,37.27-.07,9.01-.02,18.02-.03,27.04-.05,1.65,0,3.3,0,4.95,0,7.53-.06,14.25-4.64,16.98-11.67.79-2.03,1.15-4.21,1.17-6.38,0-.81-.69-1.5-1.5-1.5-6.18.01-12.36.03-18.53.04-7.41.02-14.81.03-22.22.05-.18,0-.37-.02-.55,0-1.06.11-1.4.91-1.87,1.71-1.04,1.74-2.08,3.48-3.11,5.23h2.59l-2.03-3.3c-.6-.98-1.16-2.37-2-3.18-.69-.67-2.1-.44-2.98-.44l-14.36.02c-13.78.02-27.57.05-41.35.07-3.41,0-6.82.01-10.23.02-1.93,0-1.93,3,0,3h0Z"></path>
  <path class="cls-2" d="M36.11,18.14c-.08-7.54-4.76-14.29-11.83-16.95S8.95.79,4.19,6.58C1.5,9.87.04,13.9,0,18.14c0,.81.69,1.5,1.5,1.5h22.27c.7,0,1.22-.47,1.45-1.1l2.28-6.28h-2.89l2.42,6.28c.24.63.74,1.1,1.45,1.1h6.14c1.93,0,1.93-3,0-3h-6.14l1.45,1.1-2.42-6.28c-.54-1.4-2.37-1.44-2.89,0l-2.28,6.28,1.45-1.1H1.5l1.5,1.5c.06-6.19,3.9-11.97,9.78-14.11s12.68-.4,16.81,4.42c2.3,2.7,3.49,6.17,3.52,9.69.02,1.93,3.02,1.93,3,0Z"></path>
  <path class="cls-2" d="M66.31,131.97c-.06,5.69-3.23,10.89-8.32,13.47-5.08,2.58-11.42,1.94-15.92-1.53-3.75-2.88-5.84-7.36-5.87-12.05,0-1.38,0-2.76,0-4.13,0-6.82-.02-13.64-.03-20.46-.01-8.14-.02-16.29-.03-24.43v-9.1c-.01-1.48.17-3.09-.02-4.57,0-.07,0-.15,0-.22l-.74,1.3,4-2.28c.98-.56.96-2.02,0-2.59l-3.96-2.34.74,1.3c0-5.2,0-10.41-.01-15.61l-.02-24.88c0-1.9,0-3.8,0-5.7s-3-1.93-3,0c0,6.21,0,12.42.01,18.63,0,8.48.01,16.95.02,25.43,0,.69-.07,1.42,0,2.11.12,1.16,1.11,1.53,2,2.05l2.71,1.6v-2.59l-4,2.28c-.46.26-.74.77-.74,1.3,0,4.08.01,8.15.02,12.23l.03,25.23c0,7.15.02,14.3.03,21.45,0,1.36,0,2.71,0,4.07.05,5.44,2.46,10.7,6.75,14.11,4.81,3.82,11.39,5.05,17.22,2.99,5.6-1.98,10.02-6.66,11.54-12.42.4-1.51.59-3.08.6-4.64.02-1.93-2.98-1.93-3,0h0Z"></path>
  <path class="cls-2" d="M152.87,131.47c0-3.01,0-6.03,0-9.04,0-7.2-.01-14.4-.02-21.6,0-8.75-.01-17.5-.02-26.25,0-7.57-.01-15.14-.02-22.7,0-3.66.16-7.37,0-11.03,0-.05,0-.1,0-.15,0-.69-.47-1.23-1.1-1.45l-5.92-2v2.89l5.92-2.23c.63-.24,1.1-.74,1.1-1.45,0-5.47,0-10.95,0-16.42,0-3.08-.22-6.04-1.45-8.93-1.93-4.53-5.67-8.03-10.25-9.8-3.1-1.19-6.25-1.16-9.48-1.16h-11.54c-12.9-.02-25.8-.02-38.7-.03l-41-.03c-7.32,0-14.68-.22-22-.01-.1,0-.21,0-.31,0-1.93,0-1.93,3,0,3,5.92,0,11.84,0,17.76.01l39.19.02,39.95.02c6.55,0,13.11-.04,19.66.01,8.3.07,15.1,6.68,15.17,15.02.05,5.51,0,11.02,0,16.54v1.75c.37-.48.74-.96,1.1-1.45l-5.92,2.23c-1.38.52-1.46,2.4,0,2.89l5.92,2-1.1-1.45c0,3.01,0,6.03,0,9.04,0,7.2.01,14.4.02,21.6,0,8.75.01,17.5.02,26.25,0,7.57.01,15.14.02,22.7,0,3.66-.16,7.37,0,11.03,0,.05,0,.1,0,.15,0,1.93,3,1.93,3,0h0Z"></path>
  <g>
    <path class="cls-2" d="M57.62,115.68h0c-4.71-3.95-6.86-12.26-2.91-16.97l25.13-29.96-4.84-4.06c-5.66-4.75-6.03-13.62-1.29-19.29l13.16-15.69c3.39-4.04,9.4-4.56,13.44-1.18l35.69,29.93c4.04,3.39,4.56,9.4,1.18,13.44l-13.63,16.25c-4.69,5.59-13.02,6.32-18.61,1.63l-4.97-4.17-25.13,29.96c-3.95,4.71-12.51,4.04-17.22.09Z"></path>
    <path class="cls-2" d="M58.41,114.88c-4.12-3.45-6.55-10.8-2.9-15.39,1.29-1.63,2.67-3.19,4.01-4.78,5.53-6.6,11.07-13.19,16.6-19.79l4.51-5.38c.36-.43.5-1.17,0-1.59-1.7-1.43-3.44-2.81-5.1-4.28-3.32-2.96-4.63-7.63-3.68-11.94.58-2.64,1.98-4.72,3.68-6.74l5.32-6.34,5.51-6.57c1.55-1.85,3.04-3.61,5.49-4.31,2.86-.82,5.73-.03,7.98,1.84,1.06.88,2.1,1.76,3.15,2.65,8.88,7.45,17.76,14.9,26.64,22.35l4.36,3.66c1.09.92,2.21,1.79,2.98,3.02,2.01,3.19,1.61,7.19-.76,10.06-1.32,1.6-2.66,3.17-3.99,4.76-3.15,3.75-6.26,7.54-9.45,11.26-2.74,3.19-6.84,4.91-11.05,4.31-3.52-.5-5.97-2.63-8.57-4.81l-2.39-2c-.43-.36-1.17-.5-1.59,0-3.92,4.68-7.84,9.35-11.76,14.03-4.41,5.25-8.79,10.53-13.22,15.76-3.87,4.56-11.45,3.79-15.77.26-1.11-.91-2.71.67-1.59,1.59,4.64,3.79,12.33,5.1,17.35,1.27,1.79-1.36,3.17-3.41,4.6-5.11,5.72-6.82,11.43-13.63,17.15-20.45,1.61-1.92,3.22-3.84,4.83-5.76h-1.59c1.87,1.57,3.69,3.23,5.64,4.7,3.71,2.8,8.74,3.65,13.15,2.15,5.44-1.85,8.86-7.27,12.39-11.49l6-7.15c1.57-1.87,3.16-3.64,3.81-6.08,1.07-3.98-.31-8.23-3.41-10.91-.84-.72-1.69-1.42-2.54-2.13l-27.68-23.22c-2.73-2.29-5.77-5.59-9.26-6.66-4.08-1.25-8.51.15-11.27,3.35-1.38,1.6-2.72,3.24-4.08,4.86l-6.29,7.5c-1.25,1.49-2.63,2.96-3.73,4.57-2.57,3.78-3.3,8.79-1.92,13.15,1.15,3.63,3.63,5.92,6.44,8.27l2.61,2.19v-1.59c-4.16,4.96-8.32,9.92-12.49,14.89s-8.5,9.99-12.64,15.08c-4.47,5.48-2.21,14.27,2.91,18.56,1.1.92,2.7-.66,1.59-1.59Z"></path>
  </g>
  <path class="cls-1" d="M95.85,75.62c-3.59,4.28-7.19,8.57-10.78,12.85-5.23,6.24-10.47,12.48-15.7,18.72-1.4,1.67-2.87,4.11-5.35,3.88-2.93-.27-4.29-3.7-2.58-6,.31-.42.69-.82,1.03-1.22,4.84-5.77,9.68-11.54,14.53-17.32,4.26-5.07,8.55-10.12,12.77-15.22.08-.09.15-.18.23-.27,1.23-1.47-.88-3.6-2.12-2.12-3.83,4.56-7.66,9.13-11.49,13.69-5.24,6.25-10.48,12.5-15.72,18.75-.44.52-.88,1.03-1.31,1.56-1.8,2.21-2.25,5.19-.84,7.74,1.64,2.97,5.4,4.2,8.5,2.87,1.19-.51,2.07-1.35,2.89-2.32l14.28-17.02c4.52-5.39,9.07-10.74,13.55-16.16.08-.1.16-.19.24-.29,1.23-1.47-.88-3.6-2.12-2.12h0Z"></path>
  <path class="cls-1" d="M104.94,74.66c-.54.64-1.06,1.44-1.72,1.95-1.07.82-2.56.82-3.65.04-.92-.66-1.76-1.46-2.62-2.19-2.72-2.28-5.5-4.51-8.17-6.85-.93-.81-1.42-1.9-1.14-3.14.23-1.02,1.06-1.78,1.71-2.55,1.23-1.47-.88-3.6-2.12-2.12-.74.88-1.6,1.75-2.09,2.8-.79,1.73-.75,3.69.12,5.39.77,1.5,2.35,2.54,3.61,3.6l5.64,4.73c1.17.98,2.32,2.13,3.61,2.96,1.8,1.17,4.17,1.23,6.07.25,1.22-.63,2.02-1.72,2.88-2.75,1.23-1.47-.88-3.6-2.12-2.12h0Z"></path>
  <path class="cls-1" d="M112.63,84.9c-1.82-1.53-1.46-3.69-.1-5.31l3.62-4.32,8.96-10.68c1.16-1.38,2.42-2.79,4.46-2.18,2.54.76,2.98,3.69,1.45,5.58-2.69,3.32-5.49,6.55-8.24,9.82l-4.55,5.42c-.29.35-.58.71-.89,1.06-1.21,1.36-3.2,1.8-4.72.61s-3.64.93-2.12,2.12c2.87,2.24,6.72,2.01,9.13-.81,1.24-1.45,2.45-2.92,3.67-4.37,3.25-3.87,6.49-7.74,9.74-11.61,2.02-2.41,2.68-5.64.7-8.34-2.41-3.28-7.27-3.42-9.94-.4-3.01,3.4-5.84,6.97-8.76,10.45l-4.79,5.71c-.72.86-1.37,1.76-1.69,2.86-.66,2.3.08,4.98,1.93,6.53,1.47,1.23,3.6-.88,2.12-2.12Z"></path>
  <path class="cls-1" d="M78.51,56.29c-1.82-1.53-1.46-3.69-.1-5.31l3.62-4.32,8.96-10.68c1.16-1.38,2.42-2.79,4.46-2.18,2.54.76,2.98,3.69,1.45,5.58-2.69,3.32-5.49,6.55-8.24,9.82l-4.55,5.42c-.29.35-.58.71-.89,1.06-1.21,1.36-3.2,1.8-4.72.61s-3.64.93-2.12,2.12c2.87,2.24,6.72,2.01,9.13-.81,1.24-1.45,2.45-2.92,3.67-4.37,3.25-3.87,6.49-7.74,9.74-11.61,2.02-2.41,2.68-5.64.7-8.34-2.41-3.28-7.27-3.42-9.94-.4-3.01,3.4-5.84,6.97-8.76,10.45l-4.79,5.71c-.72.86-1.37,1.76-1.69,2.86-.66,2.3.08,4.98,1.93,6.53,1.47,1.23,3.6-.88,2.12-2.12Z"></path>
  <path class="cls-1" d="M97.17,41.19c7.79,6.54,15.58,13.07,23.37,19.61,1.1.93,2.21,1.85,3.31,2.78,1.47,1.23,3.6-.88,2.12-2.12-7.79-6.54-15.58-13.07-23.37-19.61l-3.31-2.78c-1.47-1.23-3.6.88-2.12,2.12h0Z"></path>
  <path class="cls-1" d="M112.03,78.07l-23.37-19.61-3.31-2.78c-1.47-1.23-3.6.88-2.12,2.12,7.79,6.54,15.58,13.07,23.37,19.61l3.31,2.78c1.47,1.23,3.6-.88,2.12-2.12h0Z"></path>
  <path class="cls-2" d="M56.34,115.24c-2.15,2.56-4.3,5.12-6.45,7.68l-.91,1.08c-.39.47-.46,1.13,0,1.59.4.4,1.2.47,1.59,0,2.15-2.56,4.3-5.12,6.45-7.68l.91-1.08c.39-.47.46-1.13,0-1.59-.4-.4-1.2-.47-1.59,0h0Z"></path>
  <path class="cls-2" d="M66.07,70.24c2.56,2.15,5.12,4.3,7.68,6.45l1.08.91c.47.39,1.13.46,1.59,0,.4-.4.47-1.2,0-1.59-2.56-2.15-5.12-4.3-7.68-6.45l-1.08-.91c-.47-.39-1.13-.46-1.59,0-.4.4-.47,1.2,0,1.59h0Z"></path>
  <path class="cls-2" d="M67.18,86.9c-4.71-4.13-9.41-8.25-14.12-12.38l.33.8v-16.21c0-1.45-2.25-1.45-2.25,0v15.31c0,.64-.08,1.21.37,1.73s1.08.95,1.6,1.4l7.18,6.3,5.3,4.64c1.08.95,2.68-.63,1.59-1.59h0Z"></path>
  <path class="cls-2" d="M46.95,92.8c2.56,2.15,5.12,4.3,7.68,6.45l1.08.91c.47.39,1.13.46,1.59,0,.4-.4.47-1.2,0-1.59-2.56-2.15-5.12-4.3-7.68-6.45l-1.08-.91c-.47-.39-1.13-.46-1.59,0-.4.4-.47,1.2,0,1.59h0Z"></path>
  <path class="cls-2" d="M92.41,92.47c6.05,4.89,12.1,9.79,18.15,14.68l2.57,2.08c1.12.9,2.72-.68,1.59-1.59-6.05-4.89-12.1-9.79-18.15-14.68l-2.57-2.08c-1.12-.9-2.72.68-1.59,1.59h0Z"></path>
  <path class="cls-2" d="M83.16,103.37c2.56,2.15,5.12,4.3,7.68,6.45l1.08.91c.47.39,1.13.46,1.59,0,.4-.4.47-1.2,0-1.59-2.56-2.15-5.12-4.3-7.68-6.45l-1.08-.91c-.47-.39-1.13-.46-1.59,0-.4.4-.47,1.2,0,1.59h0Z"></path>
  <path class="cls-2" d="M73.29,115.03c2.56,2.15,5.12,4.3,7.68,6.45l1.08.91c.47.39,1.13.46,1.59,0,.4-.4.47-1.2,0-1.59-2.56-2.15-5.12-4.3-7.68-6.45l-1.08-.91c-.47-.39-1.13-.46-1.59,0-.4.4-.47,1.2,0,1.59h0Z"></path>
  <path class="cls-2" d="M133.28,76.86c2.56,2.15,5.12,4.3,7.68,6.45l1.08.91c.47.39,1.13.46,1.59,0,.4-.4.47-1.2,0-1.59-2.56-2.15-5.12-4.3-7.68-6.45l-1.08-.91c-.47-.39-1.13-.46-1.59,0-.4.4-.47,1.2,0,1.59h0Z"></path>
  <path class="cls-2" d="M124.03,87.76c3.98,3.16,7.96,6.32,11.93,9.48l-.33-.8v18.58c0,1.45,2.25,1.45,2.25,0v-15.1c0-1.18.45-3.48-.48-4.39-1.73-1.71-3.92-3.11-5.82-4.62l-5.97-4.74c-1.12-.89-2.72.69-1.59,1.59h0Z"></path>
  <path class="cls-2" d="M73.88,27.1c2.56,2.15,5.12,4.3,7.68,6.45l1.08.91c.47.39,1.13.46,1.59,0,.4-.4.47-1.2,0-1.59l-7.68-6.45-1.08-.91c-.47-.39-1.13-.46-1.59,0-.4.4-.47,1.2,0,1.59h0Z"></path>
  <path class="cls-2" d="M64.63,38c2.56,2.15,5.12,4.3,7.68,6.45l1.08.91c.47.39,1.13.46,1.59,0,.4-.4.47-1.2,0-1.59-2.56-2.15-5.12-4.3-7.68-6.45l-1.08-.91c-.47-.39-1.13-.46-1.59,0-.4.4-.47,1.2,0,1.59h0Z"></path>
  <path class="cls-2" d="M108.54,34.97c2.15-2.56,4.3-5.12,6.45-7.68l.91-1.08c.39-.47.46-1.13,0-1.59-.4-.4-1.2-.47-1.59,0-2.15,2.56-4.3,5.12-6.45,7.68l-.91,1.08c-.39.47-.46,1.13,0,1.59.4.4,1.2.47,1.59,0h0Z"></path>
  <path class="cls-2" d="M119.45,44.22c2.15-2.56,4.3-5.12,6.45-7.68l.91-1.08c.39-.47.46-1.13,0-1.59-.4-.4-1.2-.47-1.59,0-2.15,2.56-4.3,5.12-6.45,7.68l-.91,1.08c-.39.47-.46,1.13,0,1.59.4.4,1.2.47,1.59,0h0Z"></path>
  <path class="cls-2" d="M131.11,54.09l3.76-4.48,2.54-3.02c.38-.46.96-.95,1.24-1.49.23-.45.15-1.03.15-1.52v-16.84c0-1.45-2.25-1.45-2.25,0v17.79l.33-.8c-2.45,2.92-4.9,5.84-7.35,8.76-.92,1.1.66,2.7,1.59,1.59h0Z"></path>
  <path class="cls-2" d="M55.71,54.48c0,.71-.19,1.26-.63,1.91-.2.29.07-.07-.06.08-.06.07-.12.14-.19.21-.05.05-.11.11-.16.16,0,0-.28.24-.11.11-.15.11-.31.21-.47.31-.07.04-.13.07-.2.11-.12.06-.14.06-.04.02-.05.02-.11.04-.16.06-1.38.46-2.69.11-3.62-1.01.1.12-.01-.02-.03-.04-.06-.09-.13-.18-.18-.28-.04-.06-.08-.13-.11-.2,0,0-.16-.34-.08-.14-.07-.17-.13-.36-.18-.54-.02-.07-.03-.15-.05-.23-.02-.14-.03-.15-.01-.05,0-.06-.01-.12-.02-.18-.01-.18-.01-.36,0-.54,0,0,.05-.38.01-.17.01-.08.03-.15.04-.23.04-.19.1-.37.16-.55.11-.32-.1.15.07-.15.05-.1.1-.2.16-.3.21-.36.27-.42.6-.72-.02.02.25-.22.14-.13s.18-.13.16-.11c.19-.13.38-.24.59-.33-.05.02-.17.06.04-.02.11-.04.22-.07.33-.11.07-.02.15-.04.22-.06-.03,0,.34-.06.19-.04s.23-.02.2-.02c.1,0,.2,0,.3,0s.2,0,.3.01c.25.01-.06-.03.16.02.53.13.7.17,1.1.41.06.04.13.08.19.12.06.04.12.08.18.13-.08-.06-.07-.05.03.03.13.13.26.26.39.39.45.47.72,1.32.73,2.03.02,1.45,2.27,1.45,2.25,0-.03-2.28-1.44-4.28-3.57-5.08s-4.56-.11-5.96,1.59-1.71,4.27-.53,6.25,3.47,2.94,5.71,2.54c2.52-.45,4.31-2.79,4.34-5.3.02-1.45-2.23-1.45-2.25,0Z"></path>
  <path class="cls-2" d="M139.63,119.56c0,.71-.19,1.26-.63,1.91-.2.29.07-.07-.06.08-.06.07-.12.14-.19.21-.05.05-.11.11-.16.16,0,0-.28.24-.11.11-.15.11-.31.21-.47.31-.07.04-.13.07-.2.11-.12.06-.14.06-.04.02-.05.02-.11.04-.16.06-1.38.46-2.69.11-3.62-1.01.1.12-.01-.02-.03-.04-.06-.09-.13-.18-.18-.28-.04-.06-.08-.13-.11-.2,0,0-.16-.34-.08-.14-.07-.17-.13-.36-.18-.54-.02-.07-.03-.15-.05-.23-.02-.14-.03-.15-.01-.05,0-.06-.01-.12-.02-.18-.01-.18-.01-.36,0-.54,0,0,.05-.38.01-.17.01-.08.03-.15.04-.23.04-.19.1-.37.16-.55.11-.32-.1.15.07-.15.05-.1.1-.2.16-.3.21-.36.27-.42.6-.72-.02.02.25-.22.14-.13s.18-.13.16-.11c.19-.13.38-.24.59-.33-.05.02-.17.06.04-.02.11-.04.22-.07.33-.11.07-.02.15-.04.22-.06-.03,0,.34-.06.19-.04s.23-.02.2-.02c.1,0,.2,0,.3,0s.2,0,.3.01c.25.01-.06-.03.16.02.53.13.7.17,1.1.41.06.04.13.08.19.12.06.04.12.08.18.13-.08-.06-.07-.05.03.03.13.13.26.26.39.39.45.47.72,1.32.73,2.03.02,1.45,2.27,1.45,2.25,0-.03-2.28-1.44-4.28-3.57-5.08s-4.56-.11-5.96,1.59-1.71,4.27-.53,6.25,3.47,2.94,5.71,2.54c2.52-.45,4.31-2.79,4.34-5.3.02-1.45-2.23-1.45-2.25,0Z"></path>
  <path class="cls-2" d="M120.22,111.57c0,.71-.19,1.26-.63,1.91-.2.29.07-.07-.06.08-.06.07-.12.14-.19.21-.05.05-.11.11-.16.16,0,0-.28.24-.11.11-.15.11-.31.21-.47.31-.07.04-.13.07-.2.11-.12.06-.14.06-.04.02-.05.02-.11.04-.16.06-1.38.46-2.69.11-3.62-1.01.1.12-.01-.02-.03-.04-.06-.09-.13-.18-.18-.28-.04-.06-.08-.13-.11-.2,0,0-.16-.34-.08-.14-.07-.17-.13-.36-.18-.54-.02-.07-.03-.15-.05-.23-.02-.14-.03-.15-.01-.05,0-.06-.01-.12-.02-.18-.01-.18-.01-.36,0-.54,0,0,.05-.38.01-.17.01-.08.03-.15.04-.23.04-.19.1-.37.16-.55.11-.32-.1.15.07-.15.05-.1.1-.2.16-.3.21-.36.27-.42.6-.72-.02.02.25-.22.14-.13s.18-.13.16-.11c.19-.13.38-.24.59-.33-.05.02-.17.06.04-.02.11-.04.22-.07.33-.11.07-.02.15-.04.22-.06-.03,0,.34-.06.19-.04s.23-.02.2-.02c.1,0,.2,0,.3,0s.2,0,.3.01c.25.01-.06-.03.16.02.53.13.7.17,1.1.41.06.04.13.08.19.12.06.04.12.08.18.13-.08-.06-.07-.05.03.03.13.13.26.26.39.39.45.47.72,1.32.73,2.03.02,1.45,2.27,1.45,2.25,0-.03-2.28-1.44-4.28-3.57-5.08s-4.56-.11-5.96,1.59-1.71,4.27-.53,6.25,3.47,2.94,5.71,2.54c2.52-.45,4.31-2.79,4.34-5.3.02-1.45-2.23-1.45-2.25,0Z"></path>
  <path class="cls-2" d="M50,128.7c0,.71-.19,1.26-.63,1.91-.2.29.07-.07-.06.08-.06.07-.12.14-.19.21-.05.05-.11.11-.16.16,0,0-.28.24-.11.11-.15.11-.31.21-.47.31-.07.04-.13.07-.2.11-.12.06-.14.06-.04.02-.05.02-.11.04-.16.06-1.38.46-2.69.11-3.62-1.01.1.12-.01-.02-.03-.04-.06-.09-.13-.18-.18-.28-.04-.06-.08-.13-.11-.2,0,0-.16-.34-.08-.14-.07-.17-.13-.36-.18-.54-.02-.07-.03-.15-.05-.23-.02-.14-.03-.15-.01-.05,0-.06-.01-.12-.02-.18-.01-.18-.01-.36,0-.54,0,0,.05-.38.01-.17.01-.08.03-.15.04-.23.04-.19.1-.37.16-.55.11-.32-.1.15.07-.15.05-.1.1-.2.16-.3.21-.36.27-.42.6-.72-.02.02.25-.22.14-.13s.18-.13.16-.11c.19-.13.38-.24.59-.33-.05.02-.17.06.04-.02.11-.04.22-.07.33-.11.07-.02.15-.04.22-.06-.03,0,.34-.06.19-.04s.23-.02.2-.02c.1,0,.2,0,.3,0s.2,0,.3.01c.25.01-.06-.03.16.02.53.13.7.17,1.1.41.06.04.13.08.19.12.06.04.12.08.18.13-.08-.06-.07-.05.03.03.13.13.26.26.39.39.45.47.72,1.32.73,2.03.02,1.45,2.27,1.45,2.25,0-.03-2.28-1.44-4.28-3.57-5.08s-4.56-.11-5.96,1.59-1.71,4.27-.53,6.25,3.47,2.94,5.71,2.54c2.52-.45,4.31-2.79,4.34-5.3.02-1.45-2.23-1.45-2.25,0Z"></path>
  <path class="cls-2" d="M140.77,22.51c0,.71-.19,1.26-.63,1.91-.2.29.07-.07-.06.08-.06.07-.12.14-.19.21-.05.05-.11.11-.16.16,0,0-.28.24-.11.11-.15.11-.31.21-.47.31-.07.04-.13.07-.2.11-.12.06-.14.06-.04.02-.05.02-.11.04-.16.06-1.38.46-2.69.11-3.62-1.01.1.12-.01-.02-.03-.04-.06-.09-.13-.18-.18-.28-.04-.06-.08-.13-.11-.2,0,0-.16-.34-.08-.14-.07-.17-.13-.36-.18-.54-.02-.07-.03-.15-.05-.23-.02-.14-.03-.15-.01-.05,0-.06-.01-.12-.02-.18-.01-.18-.01-.36,0-.54,0,0,.05-.38.01-.17.01-.08.03-.15.04-.23.04-.19.1-.37.16-.55.11-.32-.1.15.07-.15.05-.1.1-.2.16-.3.21-.36.27-.42.6-.72-.02.02.25-.22.14-.13s.18-.13.16-.11c.19-.13.38-.24.59-.33-.05.02-.17.06.04-.02.11-.04.22-.07.33-.11.07-.02.15-.04.22-.06-.03,0,.34-.06.19-.04s.23-.02.2-.02c.1,0,.2,0,.3,0s.2,0,.3.01c.25.01-.06-.03.16.02.53.13.7.17,1.1.41.06.04.13.08.19.12.06.04.12.08.18.13-.08-.06-.07-.05.03.03.13.13.26.26.39.39.45.47.72,1.32.73,2.03.02,1.45,2.27,1.45,2.25,0-.03-2.28-1.44-4.28-3.57-5.08s-4.56-.11-5.96,1.59-1.71,4.27-.53,6.25,3.47,2.94,5.71,2.54c2.52-.45,4.31-2.79,4.34-5.3.02-1.45-2.23-1.45-2.25,0Z"></path>
  <path class="cls-2" d="M74.55,23.08c0,.71-.19,1.26-.63,1.91-.2.29.07-.07-.06.08-.06.07-.12.14-.19.21-.05.05-.11.11-.16.16,0,0-.28.24-.11.11-.15.11-.31.21-.47.31-.07.04-.13.07-.2.11-.12.06-.14.06-.04.02-.05.02-.11.04-.16.06-1.38.46-2.69.11-3.62-1.01.1.12-.01-.02-.03-.04-.06-.09-.13-.18-.18-.28-.04-.06-.08-.13-.11-.2,0,0-.16-.34-.08-.14-.07-.17-.13-.36-.18-.54-.02-.07-.03-.15-.05-.23-.02-.14-.03-.15-.01-.05,0-.06-.01-.12-.02-.18-.01-.18-.01-.36,0-.54,0,0,.05-.38.01-.17.01-.08.03-.15.04-.23.04-.19.1-.37.16-.55.11-.32-.1.15.07-.15.05-.1.1-.2.16-.3.21-.36.27-.42.6-.72-.02.02.25-.22.14-.13s.18-.13.16-.11c.19-.13.38-.24.59-.33-.05.02-.17.06.04-.02.11-.04.22-.07.33-.11.07-.02.15-.04.22-.06-.03,0,.34-.06.19-.04s.23-.02.2-.02c.1,0,.2,0,.3,0s.2,0,.3.01c.25.01-.06-.03.16.02.53.13.7.17,1.1.41.06.04.13.08.19.12.06.04.12.08.18.13-.08-.06-.07-.05.03.03.13.13.26.26.39.39.45.47.72,1.32.73,2.03.02,1.45,2.27,1.45,2.25,0-.03-2.28-1.44-4.28-3.57-5.08s-4.56-.11-5.96,1.59-1.71,4.27-.53,6.25,3.47,2.94,5.71,2.54c2.52-.45,4.31-2.79,4.34-5.3.02-1.45-2.23-1.45-2.25,0Z"></path>
  <g>
    <rect class="cls-2" x="64.65" y="94.48" width="5.63" height="18.44" rx="2.82" ry="2.82" transform="translate(-55.34 88.73) rotate(-50)"></rect>
    <path class="cls-1" d="M71.36,109.18c-3.26-2.74-6.62-5.39-9.8-8.22-.58-.52-.89-1.28-.56-2.04s1.23-1.2,2.05-.96c.65.19,1.2.82,1.7,1.24l6.58,5.52c.68.57,1.38,1.13,2.05,1.72s.94,1.51.42,2.29-1.67,1.04-2.44.44c-.48-.37-1.12-.47-1.59,0-.39.39-.48,1.21,0,1.59,1.09.85,2.44,1.24,3.79.8,1.27-.41,2.3-1.47,2.63-2.77.44-1.76-.37-3.24-1.67-4.33-2.35-1.97-4.7-3.95-7.06-5.92-.75-.63-1.49-1.27-2.26-1.89-1.9-1.55-4.78-1.27-6.06.95-1.02,1.78-.46,3.86,1.06,5.13l2.82,2.37c2.25,1.89,4.5,3.77,6.75,5.66,1.1.92,2.7-.66,1.59-1.59Z"></path>
  </g>
  <g>
    <rect class="cls-2" x="82.66" y="73.01" width="5.63" height="18.44" rx="2.82" ry="2.82" transform="translate(-32.46 94.86) rotate(-50)"></rect>
    <path class="cls-1" d="M89.37,87.71c-3.26-2.74-6.62-5.39-9.8-8.22-.58-.52-.89-1.28-.56-2.04s1.23-1.2,2.05-.96c.65.19,1.2.82,1.7,1.24l6.58,5.52c.68.57,1.38,1.13,2.05,1.72s.94,1.51.42,2.29-1.67,1.04-2.44.44c-.48-.37-1.12-.47-1.59,0-.39.39-.48,1.21,0,1.59,1.09.85,2.44,1.24,3.79.8,1.27-.41,2.3-1.47,2.63-2.77.44-1.76-.37-3.24-1.67-4.33-2.35-1.97-4.7-3.95-7.06-5.92-.75-.63-1.49-1.27-2.26-1.89-1.9-1.55-4.78-1.27-6.06.95-1.02,1.78-.46,3.86,1.06,5.13l2.82,2.37,6.75,5.66c1.1.92,2.7-.66,1.59-1.59Z"></path>
  </g>
</svg><style>@media (prefers-color-scheme: light) { :root { filter: none; } }
@media (prefers-color-scheme: dark) { :root { filter: none; } }
</style></svg>